<svg width="400" height="600" viewBox="0 0 400 600" fill="none" xmlns="http://www.w3.org/2000/svg">
<rect width="400" height="600" rx="15" fill="url(#paint0_linear_4_31)"/>
<path d="M0 227H231V496H0V227Z" fill="url(#paint1_linear_4_31)"/>
<path d="M225 317.422C221.203 317.142 217.368 317 213.5 317C128.172 317 59 386.172 59 471.5C59 478.105 59.4145 484.613 60.2188 491H225V317.422Z" fill="url(#paint2_linear_4_31)"/>
<path d="M0 506H216C229.807 506 241 494.807 241 481V241C241 227.193 229.807 216 216 216H0V232H216C220.971 232 225 236.029 225 241V481C225 485.971 220.971 490 216 490H0V506Z" fill="#242742"/>
<path d="M0 232V352.191C54.5957 335.391 96.2925 289.151 106.56 232H0Z" fill="url(#paint3_linear_4_31)"/>
<path d="M128 130C128 124.477 132.477 120 138 120H400V151H128V130Z" fill="#242742"/>
<path d="M158 136C158 139.866 154.866 143 151 143C147.134 143 144 139.866 144 136C144 132.134 147.134 129 151 129C154.866 129 158 132.134 158 136Z" fill="#FA6464"/>
<path d="M180 136C180 139.866 176.866 143 173 143C169.134 143 166 139.866 166 136C166 132.134 169.134 129 173 129C176.866 129 180 132.134 180 136Z" fill="#F4945E"/>
<path d="M202 136C202 139.866 198.866 143 195 143C191.134 143 188 139.866 188 136C188 132.134 191.134 129 195 129C198.866 129 202 132.134 202 136Z" fill="#6BD2A5"/>
<path d="M128 151H224V372H139C132.925 372 128 367.075 128 361V151Z" fill="url(#paint4_linear_4_31)"/>
<path d="M224 151H400V372H224V151Z" fill="#F2F2F2"/>
<path d="M142 171C142 168.791 143.791 167 146 167H206C208.209 167 210 168.791 210 171C210 173.209 208.209 175 206 175H146C143.791 175 142 173.209 142 171Z" fill="#BABADB"/>
<path d="M142 191C142 188.791 143.791 187 146 187H198C200.209 187 202 188.791 202 191C202 193.209 200.209 195 198 195H146C143.791 195 142 193.209 142 191Z" fill="#BABADB"/>
<path d="M142 231C142 228.791 143.791 227 146 227H184C186.209 227 188 228.791 188 231C188 233.209 186.209 235 184 235H146C143.791 235 142 233.209 142 231Z" fill="#BABADB"/>
<path d="M142 211C142 208.791 143.791 207 146 207H206C208.209 207 210 208.791 210 211C210 213.209 208.209 215 206 215H146C143.791 215 142 213.209 142 211Z" fill="#BABADB"/>
<path d="M294 245C294 242.791 295.791 241 298 241H400V396H298C295.791 396 294 394.209 294 392V245Z" fill="white"/>
<path d="M344.75 326.578H345.047C346.297 326.578 347.37 326.427 348.266 326.125C349.172 325.812 349.917 325.365 350.5 324.781C351.083 324.198 351.516 323.484 351.797 322.641C352.078 321.786 352.219 320.818 352.219 319.734V315.422C352.219 314.599 352.135 313.875 351.969 313.25C351.812 312.625 351.583 312.109 351.281 311.703C350.99 311.286 350.646 310.974 350.25 310.766C349.865 310.557 349.438 310.453 348.969 310.453C348.469 310.453 348.026 310.578 347.641 310.828C347.255 311.068 346.927 311.396 346.656 311.812C346.396 312.229 346.193 312.708 346.047 313.25C345.911 313.781 345.844 314.339 345.844 314.922C345.844 315.505 345.911 316.062 346.047 316.594C346.182 317.115 346.385 317.578 346.656 317.984C346.927 318.38 347.266 318.698 347.672 318.938C348.078 319.167 348.557 319.281 349.109 319.281C349.641 319.281 350.115 319.182 350.531 318.984C350.958 318.776 351.318 318.505 351.609 318.172C351.911 317.839 352.141 317.469 352.297 317.062C352.464 316.656 352.547 316.245 352.547 315.828L354.031 316.641C354.031 317.37 353.875 318.089 353.562 318.797C353.25 319.505 352.812 320.151 352.25 320.734C351.698 321.307 351.057 321.766 350.328 322.109C349.599 322.453 348.818 322.625 347.984 322.625C346.922 322.625 345.979 322.432 345.156 322.047C344.333 321.651 343.635 321.109 343.062 320.422C342.5 319.724 342.073 318.911 341.781 317.984C341.49 317.057 341.344 316.052 341.344 314.969C341.344 313.865 341.521 312.828 341.875 311.859C342.24 310.891 342.755 310.036 343.422 309.297C344.099 308.557 344.906 307.979 345.844 307.562C346.792 307.135 347.844 306.922 349 306.922C350.156 306.922 351.208 307.146 352.156 307.594C353.104 308.042 353.917 308.677 354.594 309.5C355.271 310.312 355.792 311.286 356.156 312.422C356.531 313.557 356.719 314.818 356.719 316.203V317.766C356.719 319.245 356.557 320.62 356.234 321.891C355.922 323.161 355.448 324.312 354.812 325.344C354.188 326.365 353.406 327.24 352.469 327.969C351.542 328.698 350.464 329.255 349.234 329.641C348.005 330.026 346.63 330.219 345.109 330.219H344.75V326.578ZM375.875 321.5V325.031H359.484L359.266 322.297L368.75 307.25H372.328L368.453 313.734L363.734 321.5H375.875ZM373.297 307.25V330H368.797V307.25H373.297Z" fill="#242742"/>
<path fill-rule="evenodd" clip-rule="evenodd" d="M400 298.502C392.329 283.37 376.625 273 358.5 273C332.819 273 312 293.819 312 319.5C312 345.181 332.819 366 358.5 366C376.625 366 392.329 355.63 400 340.498V298.502ZM391 319.5C391 337.449 376.449 352 358.5 352C340.551 352 326 337.449 326 319.5C326 301.551 340.551 287 358.5 287C376.449 287 391 301.551 391 319.5Z" fill="url(#paint5_linear_4_31)"/>
<rect x="245" y="98" width="98" height="131" rx="4" fill="white"/>
<path fill-rule="evenodd" clip-rule="evenodd" d="M245 196.96V188.707L263.91 170.848C266.096 168.669 268.441 167.125 271.25 167.125C273.904 167.125 276.198 168.531 278.223 170.042C278.77 170.393 279.132 170.423 279.44 170.384C279.864 170.33 280.507 170.092 281.463 169.42C283.027 168.321 284.687 166.632 286.828 164.453L286.828 164.453C287.466 163.804 288.146 163.112 288.879 162.379L288.902 162.355L288.926 162.332L300.405 151.353C301.837 149.931 303.85 148.82 306.27 148.634C308.737 148.444 311.317 149.238 313.8 151.1C316.652 153.239 319.963 153.585 322.604 151.671L343 133.399V141.455L326.502 156.235L326.404 156.322L326.3 156.4C320.957 160.407 314.611 159.208 310.2 155.9C308.683 154.762 307.513 154.556 306.73 154.616C305.915 154.679 305.187 155.056 304.621 155.621L304.598 155.645L304.574 155.668L293.098 166.645C292.525 167.218 291.953 167.801 291.382 168.383L291.382 168.384C289.163 170.647 286.97 172.883 284.912 174.33C283.556 175.283 281.98 176.108 280.2 176.335C278.317 176.576 276.505 176.109 274.836 174.996L274.767 174.95L274.7 174.9C272.743 173.433 271.813 173.125 271.25 173.125C270.822 173.125 269.927 173.316 268.121 175.121L268.091 175.152L268.06 175.181L245 196.96Z" fill="url(#paint6_linear_4_31)"/>
<defs>
<linearGradient id="paint0_linear_4_31" x1="200" y1="0" x2="200" y2="600" gradientUnits="userSpaceOnUse">
<stop stop-color="#FD6447"/>
<stop offset="1" stop-color="#FF5671"/>
</linearGradient>
<linearGradient id="paint1_linear_4_31" x1="120.5" y1="216" x2="120.5" y2="506" gradientUnits="userSpaceOnUse">
<stop stop-color="#FA6160"/>
<stop offset="1" stop-color="#FF7C4D"/>
</linearGradient>
<linearGradient id="paint2_linear_4_31" x1="-45" y1="204" x2="-45.5" y2="359" gradientUnits="userSpaceOnUse">
<stop stop-color="#FE6662"/>
<stop offset="1" stop-color="#FF7E4A"/>
</linearGradient>
<linearGradient id="paint3_linear_4_31" x1="-45" y1="204" x2="-45.5" y2="359" gradientUnits="userSpaceOnUse">
<stop stop-color="#FE6662"/>
<stop offset="1" stop-color="#FF7E4A"/>
</linearGradient>
<linearGradient id="paint4_linear_4_31" x1="264" y1="120" x2="264" y2="372" gradientUnits="userSpaceOnUse">
<stop stop-color="#CFD1EA"/>
<stop offset="1" stop-color="#EEEEF0"/>
</linearGradient>
<linearGradient id="paint5_linear_4_31" x1="356" y1="273" x2="356" y2="366" gradientUnits="userSpaceOnUse">
<stop stop-color="#FF6841"/>
<stop offset="1" stop-color="#FF5A67"/>
</linearGradient>
<linearGradient id="paint6_linear_4_31" x1="343.447" y1="147.845" x2="245.315" y2="194.942" gradientUnits="userSpaceOnUse">
<stop stop-color="#FF6843"/>
<stop offset="1" stop-color="#FF5B65"/>
</linearGradient>
</defs>
</svg>
